<?xml version="1.0" encoding="utf-8"?>
<!-- Generator: Adobe Illustrator 25.2.2, SVG Export Plug-In . SVG Version: 6.00 Build 0)  -->
<svg version="1.1" id="Layer_1" xmlns="http://www.w3.org/2000/svg" xmlns:xlink="http://www.w3.org/1999/xlink" x="0px" y="0px"
	 viewBox="0 0 56 56" style="enable-background:new 0 0 56 56;" xml:space="preserve">
<style type="text/css">
	.st0{fill:#005CAB;}
</style>
<g>
	<path class="st0" d="M51,51.4c0.6,0,1-0.4,1-1c0-0.1,0-0.2,0-0.3l-4.9-30.8c0-0.2-0.1-0.4-0.3-0.6c0.5-0.6,0.7-1.3,0.7-2.1
		c0-1.8-1.5-3.3-3.3-3.3h-5h-4.9c-0.5-1.8-0.9-3.4-1.1-4.4C34.8,8.4,36,6.8,36,5c0-2.3-1.8-4.1-4-4.1H13.9c-2.2,0-4,1.8-4,4.1
		c0,1.9,1.3,3.5,3,4c-1,2.9-3.2,9.6-5.2,16.4C6.1,30.7,5,35,4.5,38.2c-0.8,4.7-0.6,7,0.7,7.8c0.5,0.3,1.9,1.1,9.7,1.2L14.2,54
		c0,0.3,0.1,0.6,0.3,0.8c0.2,0.2,0.5,0.3,0.7,0.3h17.6c0.1,0,0.1,0,0.2,0l5.2-0.3c0.3,0,0.5-0.2,0.7-0.4c0.2-0.2,0.3-0.5,0.2-0.8
		l-0.3-2.2h1.4H51C51,51.4,51,51.4,51,51.4z M44.1,47.3l-0.6-9.5c0-0.6-0.5-1-1.1-0.9c-0.6,0-1,0.5-0.9,1.1l0.6,9.5
		c0,0.5-0.1,1-0.5,1.4c-0.4,0.4-0.8,0.6-1.3,0.6h-1.4h-0.4l-0.2-1.3h0.9c0.3,0,0.6-0.3,0.6-0.6s-0.3-0.6-0.6-0.6h-1l-1.9-11.8
		c1.4-0.8,2.3-2.2,2.3-3.9c0-2.4-2-4.4-4.4-4.4c-2.4,0-4.4,2-4.4,4.4c0,0.1,0,0.1,0,0.2h-3l0.8-9.8c0.1-1,0.9-1.7,1.8-1.7h4.6h4.8
		c1,0,1.8,0.8,1.9,1.8l0.6,10.6c0,0.6,0.5,1,1.1,0.9c0.6,0,1-0.5,0.9-1.1l-0.6-10.6c0-0.4-0.1-0.8-0.2-1.1l2.8,0l4.6,28.9h-6.2
		C43.9,48.7,44.1,48,44.1,47.3z M17.4,41.1c0.1-0.5-0.4-1-0.9-1.1c-0.5-0.1-1,0.4-1.1,0.9l-0.1,1.5L8,42c-0.3,0-0.6,0.2-0.6,0.5
		c0,0.3,0.2,0.6,0.5,0.6l7.2,0.3L15,45.2c-6.7,0-8.4-0.7-8.8-0.9C6,44.1,4.9,41.8,9.7,25.4c2-7,4.3-13.8,5.2-16.3h16.3
		c0.1,0.4,0.2,0.8,0.3,1.3l-10.9-0.1c0,0,0,0,0,0c-0.3,0-0.6,0.3-0.6,0.6c0,0.3,0.3,0.6,0.6,0.6l11.2,0.1c0.1,0.5,0.3,1.1,0.4,1.7
		h-3.3c-1.8,0-3.3,1.5-3.3,3.3c0,0.9,0.4,1.8,1,2.4c-0.7,0.6-1.1,1.5-1.2,2.5L25.3,24l-3.9-4c-0.2-0.2-0.6-0.2-0.8,0l-4.7,4.6
		c-0.1,0.1-0.2,0.3-0.2,0.4c0,0.2,0.1,0.3,0.2,0.4l4.8,4.9c0.1,0.1,0.3,0.2,0.4,0.2c0.1,0,0.3-0.1,0.4-0.2l3.7-3.6l-0.4,4.8h-7.5
		c-0.5,0-0.9,0.4-1,0.9l-0.1,1.4c-0.1,0.5,0.4,1,0.9,1.1c0.6,0.1,1-0.4,1.1-0.9l0-0.5h12.4l0.2,3.5h-5.8c-0.3,0-0.6,0.3-0.6,0.6
		c0,0.3,0.3,0.6,0.6,0.6h5.9l0.8,15H16.3L17.4,41.1z M11.9,5c0-1.2,0.9-2.1,2-2.1H32c1.1,0,2,0.9,2,2.1c0,1.2-0.9,2.1-2,2.1H13.9
		C12.8,7.1,11.9,6.2,11.9,5z M30.8,31.3c0-1.8,1.5-3.3,3.3-3.3s3.3,1.5,3.3,3.3c0,1.1-0.5,2.1-1.4,2.7l-0.3-1.6
		c-0.1-0.5-0.5-0.8-1-0.8H32h-0.6h-0.6C30.8,31.4,30.8,31.3,30.8,31.3z M37,52.8L33.5,53l-1-19.6H34L37,52.8z M45.5,16.6
		c0,0.7-0.6,1.3-1.3,1.3h-2c0.2-0.4,0.3-0.8,0.3-1.3c0-0.5-0.1-0.9-0.3-1.3h2C44.9,15.3,45.5,15.9,45.5,16.6z M40.5,16.6
		c0,0.7-0.6,1.3-1.3,1.3h-0.4h-4.8h-4.6h-0.4c-0.7,0-1.3-0.6-1.3-1.3c0-0.7,0.6-1.3,1.3-1.3h5h5.3C39.9,15.3,40.5,15.9,40.5,16.6z
		 M24.9,25.2L21,29.1L17,25l3.9-3.8L24.9,25.2z"/>
	<path class="st0" d="M42.5,34c-0.6-0.1-1.1,0.3-1.2,0.9c-0.1,0.6,0.3,1.1,0.9,1.2c0.6,0.1,1.1-0.3,1.2-0.9
		C43.5,34.6,43.1,34.1,42.5,34z"/>
	<path class="st0" d="M18,37.7c0.1-0.7-0.4-1.3-1-1.4s-1.3,0.4-1.4,1c-0.1,0.7,0.4,1.3,1,1.4C17.3,38.8,17.9,38.3,18,37.7z"/>
	<path class="st0" d="M19.9,45.7h8c0.6,0,1-0.4,1-1s-0.4-1-1-1h-8c-0.6,0-1,0.4-1,1S19.4,45.7,19.9,45.7z"/>
</g>
</svg>
