<?xml version="1.0" encoding="utf-8"?>
<!-- Generator: Adobe Illustrator 25.2.2, SVG Export Plug-In . SVG Version: 6.00 Build 0)  -->
<svg version="1.1" id="Layer_1" xmlns="http://www.w3.org/2000/svg" xmlns:xlink="http://www.w3.org/1999/xlink" x="0px" y="0px"
	 viewBox="0 0 73 64" style="enable-background:new 0 0 73 64;" xml:space="preserve">
<style type="text/css">
	.st0{fill:none;stroke:#005CAB;stroke-width:1.6666;stroke-linecap:round;stroke-linejoin:round;stroke-miterlimit:10;}
	.st1{fill:#FFFFFF;stroke:#005CAB;stroke-width:1.6666;stroke-linecap:round;stroke-linejoin:round;stroke-miterlimit:10;}
</style>
<g>
	<path class="st0" d="M41.1,39.7c-1.1-1.7-2.6-3.2-4.5-4.6c-4.6-3.4-11.4-5.7-20.4-6.9C14,28,7.9,27.2,5.6,27"/>
	<path class="st0" d="M9,55.8c-3,0-5.5-2.4-5.5-5.5c0-3,2.4-5.5,5.5-5.5c3,0,5.5,2.4,5.5,5.5C14.4,53.4,12,55.8,9,55.8z"/>
	<line class="st1" x1="5.6" y1="39.7" x2="44.3" y2="39.7"/>
	<path class="st0" d="M27.7,27.3c0.1-0.2,0.1-0.4,0-0.6l-2.4-8.5c-1-3.4-0.3-7,1.9-9.8C29.4,5.6,32.6,4,36.1,4
		c4.5,0,8.5,3.1,9.6,7.4L55.9,50l2.2-0.5L48,10.8c-1.4-5.4-6.3-9.1-11.8-9.1C31.9,1.7,28,3.6,25.4,7s-3.4,7.7-2.2,11.8l2.2,7.8"/>
	<path class="st0" d="M15.4,55h22.7c4.5,0,8.2-2.8,8.2-6.2c0-11.8-7.6-18.2-18.6-21.5c-1.3-0.2-2.3-0.6-2.3-0.6
		c-2.4-0.6-4.9-1.1-7.6-1.4c-2.1-0.3-5.7-0.6-7.8-0.8c-3.4-0.2-4.4,1.3-4.4,3.1v15.6"/>
	<path class="st0" d="M55.9,50L55,50.2l0.9,3.9c0.2,0.8-0.3,1.6-1.1,1.8l-7.1,1.7c-0.7,0.2-1.3,0.8-1.3,1.6l-0.1,3.1l25.7-6
		l-1.5-2.8c-0.4-0.7-1.1-1-1.9-0.8l-7.1,1.7c-0.8,0.2-1.6-0.3-1.8-1.1l-0.9-3.9l-0.7,0.2"/>
	<circle class="st0" cx="9" cy="50.3" r="8"/>
</g>
</svg>
