<?xml version="1.0" encoding="utf-8"?>
<!-- Generator: Adobe Illustrator 25.2.2, SVG Export Plug-In . SVG Version: 6.00 Build 0)  -->
<svg version="1.1" id="Layer_1" xmlns="http://www.w3.org/2000/svg" xmlns:xlink="http://www.w3.org/1999/xlink" x="0px" y="0px"
	 viewBox="0 0 46 61" style="enable-background:new 0 0 46 61;" xml:space="preserve">
<style type="text/css">
	.st0{fill:#1E4280;}
</style>
<g>
	<path class="st0" d="M44.1,14.4c-1.2-2.7-2.8-5.2-4.9-7.3c-2.1-2.1-4.5-3.8-7.3-4.9c-5.6-2.4-12.2-2.4-17.8,0
		C11.4,3.4,8.9,5,6.8,7.1c-2.1,2.1-3.8,4.5-4.9,7.3c-1.2,2.8-1.8,5.8-1.8,8.9c0,4.4,1.2,9.2,3.5,14c1.8,3.8,4.4,7.8,7.6,11.8
		c5.3,6.6,10.7,11,11,11.2c0.2,0.2,0.5,0.3,0.8,0.3c0.3,0,0.6-0.1,0.8-0.3c0.1,0,5.5-4.5,11-11.2c3.2-4,5.7-7.9,7.6-11.8
		c2.3-4.9,3.5-9.6,3.5-14C45.9,20.2,45.3,17.2,44.1,14.4z M43.3,23.3c0,9.2-5.7,18.2-10.5,24.1c-4,4.9-8,8.6-9.8,10.1
		c-1.8-1.6-5.8-5.2-9.8-10.1C8.4,41.5,2.7,32.5,2.7,23.3C2.7,12.1,11.8,3,23,3S43.3,12.1,43.3,23.3z"/>
	<path class="st0" d="M36.3,18c-0.7-1.7-1.8-3.3-3.1-4.6c-1.3-1.3-2.9-2.4-4.6-3.1c-3.6-1.5-7.7-1.5-11.2,0
		c-1.7,0.7-3.3,1.8-4.6,3.1c-1.3,1.3-2.4,2.9-3.1,4.6c-0.8,1.8-1.1,3.7-1.1,5.6s0.4,3.8,1.1,5.6c0.7,1.7,1.8,3.3,3.1,4.6
		c1.3,1.3,2.9,2.4,4.6,3.1c1.8,0.8,3.7,1.1,5.6,1.1c1.9,0,3.8-0.4,5.6-1.1c1.7-0.7,3.3-1.8,4.6-3.1c1.3-1.3,2.4-2.9,3.1-4.6
		c0.8-1.8,1.1-3.7,1.1-5.6S37.1,19.8,36.3,18z M34.8,23.7c0,6.5-5.3,11.8-11.8,11.8s-11.8-5.3-11.8-11.8S16.5,11.8,23,11.8
		S34.8,17.1,34.8,23.7z"/>
</g>
</svg>
