<?xml version="1.0" encoding="utf-8"?>
<!-- Generator: Adobe Illustrator 25.2.2, SVG Export Plug-In . SVG Version: 6.00 Build 0)  -->
<svg version="1.1" id="Layer_1" xmlns="http://www.w3.org/2000/svg" xmlns:xlink="http://www.w3.org/1999/xlink" x="0px" y="0px"
	 viewBox="0 0 82 69" style="enable-background:new 0 0 82 69;" xml:space="preserve">
<style type="text/css">
	.st0{fill:#005CAB;}
</style>
<g>
	<path class="st0" d="M58.2,7.1h-9.9c-0.2,0-0.5,0.1-0.6,0.2V4.6c0-2.3-1.8-4.1-4.1-4.1s-4.1,1.8-4.1,4.1v2.7
		c-0.2-0.1-0.4-0.2-0.6-0.2H22.4c-0.2,0-0.5,0.1-0.6,0.2V4.6c0-2.3-1.8-4.1-4.1-4.1c-2.3,0-4.1,1.8-4.1,4.1v2.7
		c-0.2-0.1-0.4-0.2-0.6-0.2H3.1C1.9,7.1,0.9,8,0.9,9.2v44.1c0,1.2,0.9,2.1,2.1,2.1h30.7c0.3,0,0.7-0.2,0.9-0.4s0.2-0.6,0.1-1
		c-0.4-1-0.7-2.1-0.8-3.2c-0.1-0.5-0.5-0.9-1-0.9H6.4V22.4h48.5v6.3c0,0.5,0.3,0.9,0.8,1c1.1,0.2,2.1,0.5,3.2,1
		c0.3,0.1,0.7,0.1,1-0.1s0.5-0.5,0.5-0.9V9.2C60.3,8,59.4,7.1,58.2,7.1z M41.6,4.6c0-1.1,0.9-2,2-2s2,0.9,2,2v9.3c0,1.1-0.9,2-2,2
		s-2-0.9-2-2V4.6z M15.6,4.6c0-1.1,0.9-2,2-2s2,0.9,2,2v9.3c0,1.1-0.9,2-2,2s-2-0.9-2-2V4.6z M58.2,28.2c-0.4-0.1-0.8-0.3-1.3-0.4
		V22c0-0.9-0.7-1.7-1.7-1.7H5.9c-0.9,0-1.7,0.7-1.7,1.7v28.4C4.3,51.3,5,52,5.9,52H32c0.1,0.4,0.2,0.9,0.3,1.3L3,53.3V9.2
		c0,0,0,0,0,0h8.8v4.7c0,3.2,2.6,5.8,5.8,5.8c3.2,0,5.8-2.6,5.8-5.8V9.1h14.4v4.7c0,3.2,2.6,5.8,5.8,5.8c3.2,0,5.8-2.6,5.8-5.8V9.1
		l8.9,0V28.2z"/>
	<path class="st0" d="M42.5,31.7h-2.9c-0.6,0-1-0.4-1-1v-5.3c0-0.6,0.4-1,1-1h10.1c0.6,0,1,0.4,1,1v2.9c0,0.5-0.4,0.9-0.9,1
		c-2.4,0.3-4.8,1-6.9,2.2C42.9,31.7,42.7,31.7,42.5,31.7z M40.7,29.7h1.6c2.1-1.1,4.2-1.8,6.5-2.2v-1.1h-8.1V29.7z"/>
	<path class="st0" d="M32.6,47.9h-7c-0.6,0-1-0.4-1-1v-5.3c0-0.6,0.4-1,1-1h8c0.3,0,0.6,0.2,0.8,0.4c0.2,0.3,0.2,0.6,0.1,0.9
		c-0.5,1.6-0.8,3.3-0.9,5C33.6,47.5,33.1,47.9,32.6,47.9z M26.6,45.9h5.1c0.1-1.1,0.3-2.2,0.6-3.3h-5.6V45.9z"/>
	<path class="st0" d="M34.7,39.8h-9.2c-0.6,0-1-0.4-1-1v-5.3c0-0.6,0.4-1,1-1h10.1c0.6,0,1,0.4,1,1v3.6c0,0.2-0.1,0.4-0.2,0.5
		c-0.3,0.5-0.6,1.1-0.9,1.6C35.4,39.6,35.1,39.8,34.7,39.8z M26.6,37.8h7.6c0.2-0.3,0.4-0.7,0.6-1v-2.3h-8.1V37.8z"/>
	<path class="st0" d="M35.7,31.7H25.6c-0.6,0-1-0.4-1-1v-5.3c0-0.6,0.4-1,1-1h10.1c0.6,0,1,0.4,1,1v5.3
		C36.7,31.3,36.2,31.7,35.7,31.7z M26.6,29.7h8.1v-3.3h-8.1V29.7z"/>
	<path class="st0" d="M21.6,47.9H11.4c-0.6,0-1-0.4-1-1v-5.3c0-0.6,0.4-1,1-1h10.1c0.6,0,1,0.4,1,1v5.3
		C22.6,47.4,22.1,47.9,21.6,47.9z M12.4,45.9h8.1v-3.3h-8.1V45.9z"/>
	<path class="st0" d="M21.6,39.8H11.4c-0.6,0-1-0.4-1-1v-5.3c0-0.6,0.4-1,1-1h10.1c0.6,0,1,0.4,1,1v5.3
		C22.6,39.4,22.1,39.8,21.6,39.8z M12.4,37.8h8.1v-3.3h-8.1V37.8z"/>
	<g>
		<path class="st0" d="M81.5,27c-0.2-0.2-0.4-0.2-0.7-0.2l-14.8,4.4c-0.2,0.1-0.4,0.3-0.5,0.5c-0.1,0.2,0,0.5,0.2,0.7l0.7,0.7
			L50.8,49.7l-5.3,5.6l1,1l4.8-5l8.2,7.8c0.1,0.1,0.2,0.1,0.3,0.2c0.1,0,0.1,0,0.2,0c0.2,0,0.4-0.1,0.5-0.2l15.7-16.5l0.7,0.7
			c0.1,0.1,0.2,0.1,0.3,0.2c0.1,0,0.3,0,0.4,0c0.2-0.1,0.4-0.3,0.5-0.5l3.6-15C81.8,27.5,81.7,27.2,81.5,27z M58.7,43.4l2.6-2.7
			l11.2,3.6L69.9,47L58.7,43.4z M68.9,48.1l-2.6,2.7L55,47.3l2.6-2.7L68.9,48.1z M60,57.4l-7.7-7.3l1.6-1.7L65.2,52L60,57.4z
			 M73.6,43.1l-11.2-3.6l5.1-5.4l0.5,0.4l7.3,6.9L73.6,43.1z M77,41.2l-0.3-0.3c0,0,0,0,0,0L72.6,37l-5-4.7l12.4-3.7L77,41.2z"/>
		<rect x="42" y="57.8" transform="matrix(0.688 -0.7257 0.7257 0.688 -28.9586 49.7471)" class="st0" width="2.7" height="1.4"/>
		
			<rect x="40.8" y="55.1" transform="matrix(0.9996 -2.682985e-02 2.682985e-02 0.9996 -1.4822 1.151)" class="st0" width="2.7" height="1.4"/>
		
			<rect x="42.5" y="51.7" transform="matrix(0.6879 -0.7258 0.7258 0.6879 -24.9814 47.9175)" class="st0" width="1.4" height="2.7"/>
		
			<rect x="48.2" y="57.1" transform="matrix(0.6878 -0.7259 0.7259 0.6878 -27.1215 53.7393)" class="st0" width="1.4" height="2.7"/>
		
			<rect x="45.5" y="58.3" transform="matrix(0.9996 -2.683352e-02 2.683352e-02 0.9996 -1.5833 1.2606)" class="st0" width="1.4" height="2.7"/>
	</g>
	<path class="st0" d="M41.5,60.4c0.1,0.1,0.2,0.2,0.4,0.3l0-0.6L41.5,60.4z"/>
	<path class="st0" d="M71.2,51l-0.3-0.1l-0.9,1c-1,8.2-7.9,14.5-16.3,14.5c-3.7,0-7.2-1.3-10-3.4l-0.1,0l0-0.1
		c-0.1-0.1-0.2-0.2-0.4-0.3L43,62.8l-3.9-3.7l0.5-0.5l-0.7,0l0-1.5c-1-2.2-1.6-4.6-1.6-7.1c0-9.1,7.4-16.5,16.5-16.5
		c2.8,0,5.5,0.7,7.8,2L63,34c-2.7-1.6-5.9-2.5-9.3-2.5c-10.2,0-18.5,8.3-18.5,18.5c0,10.2,8.3,18.5,18.5,18.5S72.2,60.2,72.2,50
		c0-0.1,0-0.3,0-0.4l-0.8,0.8L71.2,51z"/>
	<path class="st0" d="M41.9,60.7l0.1,0c0,0-0.1-0.1-0.1-0.1L41.9,60.7z"/>
</g>
</svg>
