<?xml version="1.0" encoding="utf-8"?>
<!-- Generator: Adobe Illustrator 25.2.2, SVG Export Plug-In . SVG Version: 6.00 Build 0)  -->
<svg version="1.1" id="Layer_1" xmlns="http://www.w3.org/2000/svg" xmlns:xlink="http://www.w3.org/1999/xlink" x="0px" y="0px"
	 viewBox="0 0 59 54" style="enable-background:new 0 0 59 54;" xml:space="preserve">
<style type="text/css">
	.st0{fill:none;}
	.st1{fill:#005CAB;}
</style>
<g>
	<rect x="1.5" y="17" class="st0" width="12" height="16"/>
</g>
<g>
	<rect x="1.5" y="33" class="st0" width="56" height="12"/>
</g>
<g>
	<rect x="45.5" y="17" class="st0" width="12" height="16"/>
</g>
<g>
	<rect x="13.5" y="1" class="st0" width="32" height="32"/>
</g>
<g>
	<path class="st1" d="M57.5,46h-56c-0.6,0-1-0.4-1-1V33c0-0.6,0.4-1,1-1h56c0.6,0,1,0.4,1,1v12C58.5,45.6,58.1,46,57.5,46z M2.5,44
		h54V34h-54V44z"/>
</g>
<g>
	<path class="st1" d="M9.5,54h-4c-0.6,0-1-0.4-1-1v-8c0-0.6,0.4-1,1-1h4c0.6,0,1,0.4,1,1v8C10.5,53.6,10.1,54,9.5,54z M6.5,52h2v-6
		h-2V52z"/>
</g>
<g>
	<path class="st1" d="M53.5,54h-4c-0.6,0-1-0.4-1-1v-8c0-0.6,0.4-1,1-1h4c0.6,0,1,0.4,1,1v8C54.5,53.6,54.1,54,53.5,54z M50.5,52h2
		v-6h-2V52z"/>
</g>
<g>
	<path class="st1" d="M57.5,34h-12c-0.6,0-1-0.4-1-1V17c0-0.6,0.4-1,1-1h12c0.6,0,1,0.4,1,1v16C58.5,33.6,58.1,34,57.5,34z M46.5,32
		h10V18h-10V32z"/>
</g>
<g>
	<path class="st1" d="M13.5,34h-12c-0.6,0-1-0.4-1-1V17c0-0.6,0.4-1,1-1h12c0.6,0,1,0.4,1,1v16C14.5,33.6,14.1,34,13.5,34z M2.5,32
		h10V18h-10V32z"/>
</g>
<g>
	<path class="st1" d="M45.5,34h-32c-0.6,0-1-0.4-1-1V1c0-0.6,0.4-1,1-1h32c0.6,0,1,0.4,1,1v32C46.5,33.6,46.1,34,45.5,34z M14.5,32
		h30V2h-30V32z"/>
</g>
</svg>
