<?xml version="1.0" encoding="utf-8"?>
<!-- Generator: Adobe Illustrator 25.2.2, SVG Export Plug-In . SVG Version: 6.00 Build 0)  -->
<svg version="1.1" id="Layer_1" xmlns="http://www.w3.org/2000/svg" xmlns:xlink="http://www.w3.org/1999/xlink" x="0px" y="0px"
	 viewBox="0 0 73 62" style="enable-background:new 0 0 73 62;" xml:space="preserve">
<style type="text/css">
	.st0{fill:#005CAB;}
</style>
<g>
	<path class="st0" d="M67.6,22.5h-4v-2.3c0-7.3-5.9-13.2-13.2-13.2H44c-0.6-3.6-3.7-6.5-7.5-6.5c-3.8,0-7,2.8-7.5,6.5h-6.4
		C15.3,7.1,9.4,13,9.4,20.3v2.3h-4c-2.7,0-4.9,2.2-4.9,4.9c0,2.7,2.2,4.9,4.9,4.9h4v15.7c0,7.3,5.9,13.2,13.2,13.2h27.9
		c7.3,0,13.2-5.9,13.2-13.2V32.4h4c2.7,0,4.9-2.2,4.9-4.9C72.6,24.8,70.4,22.5,67.6,22.5z M67.6,30.4h-4v-5.8h4
		c1.6,0,2.9,1.3,2.9,2.9C70.6,29.1,69.2,30.4,67.6,30.4z M11.4,48.2V21.6h50.2v26.6c0,6.1-5,11.1-11.1,11.1H22.5
		C16.4,59.3,11.4,54.3,11.4,48.2z M2.4,27.5c0-1.6,1.3-2.9,2.9-2.9h4v5.8h-4C3.7,30.4,2.4,29.1,2.4,27.5z M22.5,9.1h27.9
		c5.9,0,10.7,4.6,11.1,10.4H11.4C11.8,13.7,16.7,9.1,22.5,9.1z M36.5,2.7c2.7,0,4.9,1.9,5.5,4.4H31C31.6,4.6,33.8,2.7,36.5,2.7z"/>
	<path class="st0" d="M47,31.5H26v23.1h21V31.5z M45,52.6H28v-19H45V52.6z"/>
	<rect x="32.1" y="37.8" class="st0" width="8.8" height="2"/>
	<rect x="32.1" y="45.8" class="st0" width="8.8" height="2"/>
</g>
</svg>
