<?xml version="1.0" encoding="utf-8"?>
<!-- Generator: Adobe Illustrator 25.2.2, SVG Export Plug-In . SVG Version: 6.00 Build 0)  -->
<svg version="1.1" id="Layer_1" xmlns="http://www.w3.org/2000/svg" xmlns:xlink="http://www.w3.org/1999/xlink" x="0px" y="0px"
	 viewBox="0 0 58 58" style="enable-background:new 0 0 58 58;" xml:space="preserve">
<style type="text/css">
	.st0{fill:#005CAB;}
</style>
<path class="st0" d="M55.8,9.6c-0.1-0.2-0.2-0.5-0.4-0.6l-8-8c-1.1-1.1-2.9-1.1-4.1,0l-27,24.6c-0.1,0.1-0.1,0.1-0.2,0.2
	c0,0,0,0-0.1,0c-0.6,0-1.3,0.2-1.8,0.7L1.5,39.2c0,0,0,0,0,0c-0.8,0.8-0.8,1.9-0.1,3L10.8,57c0.3,0.4,0.7,0.7,1.2,0.8
	c0.1,0,0.3,0,0.4,0c0.5,0,1.1-0.2,1.6-0.5l11.3-8c0.4-0.3,0.8-1.4,1-2.8c0.1,0.1,0.3,0.1,0.4,0.1l4.1,0.2c0,0,0,0,0.1,0
	c0.3,0,0.6-0.1,0.8-0.4c0.2-0.3,0.3-0.6,0.2-0.9l-1.1-4.9l5,0.2c0.3,0,0.7-0.1,0.9-0.4c0.2-0.3,0.3-0.6,0.2-0.9L36,34.8l5,0.2
	c0.3,0,0.7-0.1,0.9-0.4c0.2-0.3,0.3-0.6,0.2-0.9L41,28.8l5,0.2c0.3,0,0.7-0.1,0.9-0.4c0.2-0.3,0.3-0.6,0.2-0.9L46,22.9l5,0.2
	c0.3,0,0.7-0.1,0.9-0.4c0.2-0.3,0.3-0.6,0.2-0.9L51,16.9l5,0.2c0.3,0,0.7-0.1,0.9-0.4c0.2-0.3,0.3-0.6,0.2-0.9L55.8,9.6z M23.8,47.7
	l-11.1,7.8c-0.1,0-0.1,0.1-0.2,0.1L3.2,41c-0.1-0.1-0.1-0.2-0.1-0.3l12.8-12.8c1,1.3,2.3,2.6,3.5,3.9c1.7,1.8,3.4,3.6,4.5,5.3
	C24.9,38.8,24.3,46.2,23.8,47.7z M49.7,14.6c-0.3,0-0.7,0.1-0.9,0.4c-0.2,0.3-0.3,0.6-0.2,0.9l1.1,4.9l-5-0.2
	c-0.4,0-0.7,0.1-0.9,0.4c-0.2,0.3-0.3,0.6-0.2,0.9l1.1,4.9l-5-0.2c-0.3,0-0.7,0.1-0.9,0.4c-0.2,0.3-0.3,0.6-0.2,0.9l1.1,4.9l-5-0.2
	c-0.3,0-0.7,0.1-0.9,0.4c-0.2,0.3-0.3,0.6-0.2,0.9l1.1,4.9l-5-0.2c-0.3,0-0.7,0.1-0.9,0.4s-0.3,0.6-0.2,0.9l1.1,4.9l-2.7-0.1
	c-0.1,0-0.2,0-0.3,0.1c0.2-3.3,0-7.2-0.8-8.6c-1.2-1.9-3-3.8-4.8-5.7c-1.1-1.2-2.1-2.2-3-3.3L44.7,2.6c0.3-0.3,0.8-0.3,1.1,0
	l7.9,7.9c0,0,0,0,0,0l1,4.5L49.7,14.6z"/>
<path class="st0" d="M13.2,51.4c-0.2,0-0.4,0-0.5-0.1c-0.3-0.1-0.8-0.4-1.1-1L8,42c-0.5-1.1-0.3-2.4,0.5-3.1v0l3.3-3.3
	c0.5-0.5,1.1-0.7,1.7-0.6c0.6,0.1,1.2,0.5,1.5,1.1l4.4,9.2c0.5,1.1,0.4,2.7-0.7,3.3L14.4,51C14,51.3,13.5,51.4,13.2,51.4z
	 M13.5,49.4L13.5,49.4L13.5,49.4z M10.1,40.4c-0.1,0.1-0.1,0.4,0,0.7l3.3,7.9l4-2.3c0-0.1,0-0.4-0.1-0.6l-4.2-8.9L10.1,40.4z"/>
</svg>
