<?xml version="1.0" encoding="utf-8"?>
<!-- Generator: Adobe Illustrator 25.2.2, SVG Export Plug-In . SVG Version: 6.00 Build 0)  -->
<svg version="1.1" id="Layer_1" xmlns="http://www.w3.org/2000/svg" xmlns:xlink="http://www.w3.org/1999/xlink" x="0px" y="0px"
	 viewBox="0 0 44 68" style="enable-background:new 0 0 44 68;" xml:space="preserve">
<style type="text/css">
	.st0{fill:#005CAB;}
</style>
<g>
	<path class="st0" d="M8.2,67.8c-1.7,0-3-1.4-3-3c0-1.4,0.9-2.5,2.2-2.9c0.2-0.6,0.4-1,0.5-1.4c0.4-1.1,0.6-1.8,1.9-3.1
		c2.6-2.7,5.9-2.8,9.6-2.9c0.2,0,0.4,0,0.6,0l-0.6-5.9c-0.5-0.1-1.1-0.1-1.8-0.1c-0.3,0-0.6,0-0.8,0c-4,0-5.1-0.7-6.2-1.3
		c-0.7-0.4-1.3-0.7-2.8-1c-2.7-0.4-4.2-1.7-5.4-3.2c-1.6-1.9-1.9-3.9-1.9-6.5c0-0.5,0-1.2-0.1-2c-0.2-3.9-0.2-6.7,1.3-7.8
		c0.5-0.3,1.3-0.6,2.4-0.1c1.7,0.8,1.6,3.1,1.4,6C5.4,37,5.4,40.2,7.9,41l0,0c0.7-0.7,1.5-1.5,3.2-1.7l7.4-0.1l0-0.1l-6.9-0.2
		c-2.4-0.2-3.6-1.6-4.3-2.7c-1.2-1.7-1.1-3.8-1-5.7L8.3,8.3c0.9-8.2,10-8,13.9-7.9l1.1,0c5.1,0.1,11.5,0.2,12.4,7.8l1.8,22.1
		c0.4,5.1-1.5,8.2-5.2,8.5l-7,0.1l0,0.2c1.2,0.1,2.4,0.1,3.8,0.1c1.5,0,3.1,0,4.7,0.2l0.2,0l0.2,0.1c0.9,0.5,1.4,0.9,1.8,1.3
		c0,0,0.1,0.1,0.1,0.1c2.5-0.8,2.6-3.9,2.3-8.2c-0.2-2.8-0.3-5.3,1.4-6c0.8-0.4,1.6-0.4,2.3,0c0.7,0.4,1.2,1.2,1.4,2.2l0,0
		c0.2,1.3,0.1,3.5,0.1,5.4c0,0.8,0,1.6,0,2.2c0,5.3-2.8,9.1-7.3,9.7c-1.8,0.3-2,0.4-2.3,0.7c-0.5,0.4-1.1,0.8-3,1.3
		c-1.3,0.3-2.7,0.3-4,0.3c-0.8,0-1.6,0-2.3,0.1l-0.6,6c0.4,0,0.8,0,1.2,0c3.5,0.1,6.3,0.1,9.1,2.8c1.3,1.3,1.6,1.9,1.9,3.1
		c0.1,0.4,0.3,0.8,0.5,1.3c1.3,0.3,2.3,1.5,2.3,2.9c0,1.7-1.4,3-3,3s-3-1.4-3-3c0-0.6,0.2-1.2,0.5-1.7c-0.2-0.6-0.6-1.7-0.9-2.2
		c-0.5-0.9-2.4-2.3-4.4-2.5l-0.2,0l-0.2-0.1c-0.7-0.4-2.5-0.4-3.9-0.2c0,0.5,0,1.1,0,1.6c0,0.3,0,0.6,0,0.8c0,0.7,0.1,1.3,0.3,1.8
		c0.7,0.6,1.1,1.4,1.1,2.4c0,1.7-1.4,3-3,3s-3-1.4-3-3c0-1,0.5-2,1.4-2.5L20.3,58c-1.4-0.2-3.2-0.1-3.9,0.2l-0.2,0.1l-0.2,0
		c-2.1,0.2-3.9,1.5-4.5,2.6c-0.2,0.5-0.6,1.5-0.8,2.1c0.3,0.5,0.5,1.1,0.5,1.7C11.2,66.5,9.9,67.8,8.2,67.8z M8.5,63.8l-0.4,0
		c-0.5,0-0.9,0.4-0.9,0.9c0,0.5,0.4,0.9,0.9,0.9s0.9-0.4,0.9-0.9c0-0.2-0.1-0.5-0.3-0.7L8.5,63.8z M35.5,63.8l-0.3,0.3
		c-0.2,0.2-0.3,0.4-0.3,0.6c0,0.5,0.4,0.9,0.9,0.9s0.9-0.4,0.9-0.9c0-0.5-0.4-0.9-0.9-0.9L35.5,63.8z M22.2,63.6l-0.4,0.2
		c-0.4,0.1-0.6,0.5-0.6,0.9c0,0.5,0.4,0.9,0.9,0.9s0.9-0.4,0.9-0.9c0-0.3-0.2-0.6-0.5-0.8L22.2,63.6z M18.4,46.4
		c0.8,0,1.6,0.1,2.4,0.4l0.6,0.2l0.6,5.9l0.6-6.2l0.7-0.2c1.2-0.2,2.4-0.2,3.5-0.2c1.2,0,2.4,0,3.5-0.2c1.6-0.4,1.9-0.6,2.2-0.9
		c0.6-0.5,1.1-0.8,3.3-1.1c5-0.7,5.5-5.5,5.5-7.6c0-0.6,0-1.4,0-2.3c0-1.8,0.1-3.9,0-5v0c0-0.3-0.2-0.5-0.3-0.6
		c-0.1-0.1-0.3,0-0.4,0.1c-0.4,0.3-0.2,2.6-0.2,4c0.2,4,0.5,9.6-4.5,10.5l-0.5,0.1l-0.4-0.3c-0.2-0.2-0.4-0.4-0.6-0.5
		c-0.4-0.3-0.6-0.6-1.1-0.8c-1.4-0.1-2.9-0.1-4.3-0.1c-1.7,0-3.4,0-5-0.2l-1-0.1l0.3-4.1l8.8-0.2c3-0.3,3.4-3.6,3.2-6.3l-1.8-22
		c-0.6-5.3-4.3-5.8-10.3-5.9l-1.2,0c-7.9-0.2-11.3,1.5-11.8,6L8.6,30.7c-0.2,2-0.1,3.3,0.6,4.4c0.8,1.1,1.6,1.6,2.7,1.8l8.9,0.3
		l-0.1,4.2l-9.4,0.1c-0.9,0.1-1.3,0.5-1.9,1.1c-0.1,0.1-0.3,0.3-0.5,0.4l-0.4,0.3L8,43.2c-5-0.9-4.7-6.5-4.5-10.5
		c0.1-1.4,0.2-3.6-0.2-4C3.1,28.6,3,28.6,3,28.6c-0.7,0.5-0.5,4.4-0.4,5.9c0,0.8,0.1,1.5,0.1,2.1c0,2.6,0.3,3.9,1.4,5.1
		c1.2,1.3,2.2,2.2,4.1,2.4c2,0.3,2.9,0.8,3.6,1.2c0.9,0.5,1.7,1,5.1,1c0.3,0,0.5,0,0.8,0C17.9,46.4,18.2,46.4,18.4,46.4z"/>
	<path class="st0" d="M16.6,13.1l11,0c1.7,0,2.6-0.4,2.5,1.2c-1.1,0.5-14.9,0.5-16,0C13.9,12.8,15,13.1,16.6,13.1z"/>
	<path class="st0" d="M30,19c-1.2,0.5-13.7,0.4-15.9,0c-0.2-1.7,0.9-1.3,2.5-1.3l8.6,0C28.7,17.7,30.1,17.2,30,19z"/>
	<path class="st0" d="M14.1,23.2c-0.2-1.7,0.9-1.3,2.5-1.3l8.6,0c3.5,0,4.9-0.5,4.8,1.3C28.8,23.7,16.2,23.6,14.1,23.2z"/>
</g>
</svg>
