<?xml version="1.0" encoding="utf-8"?>
<!-- Generator: Adobe Illustrator 25.2.2, SVG Export Plug-In . SVG Version: 6.00 Build 0)  -->
<svg version="1.1" id="Layer_1" xmlns="http://www.w3.org/2000/svg" xmlns:xlink="http://www.w3.org/1999/xlink" x="0px" y="0px"
	 viewBox="0 0 91 71" style="enable-background:new 0 0 91 71;" xml:space="preserve">
<style type="text/css">
	.st0{fill:#005CAB;}
</style>
<g>
	<polygon class="st0" points="49,16.3 47.5,27.6 44.3,52.9 49,16.3 	"/>
	<polygon class="st0" points="49,16.3 49,16.2 49,16.2 49,16.3 	"/>
	<polygon class="st0" points="47.5,27.6 46.1,38.4 43.8,56.4 44.3,52.9 	"/>
	<polygon class="st0" points="49,16.3 47.5,27.6 49,16.3 	"/>
	<polygon class="st0" points="49,16.3 49,16.3 49,16.2 49,16.2 46.1,38.4 47.5,27.6 	"/>
	<path class="st0" d="M89.1,18.1L88.2,18l0.2-1.8c0.1-0.8-0.5-1.5-1.2-1.6c-1.1-0.1-2.3-0.3-3.4-0.4l0.4-3.4c0-0.4-0.1-0.8-0.3-1.1
		c-0.2-0.3-0.6-0.5-1-0.5c-3.8-0.5-7.4-0.7-10.9-0.7c-13.6,0-20.8,3.8-23.4,5.6C46,10.9,37.3,3.3,16.7,0.6c-0.1,0-0.1,0-0.2,0
		c-0.3,0-0.6,0.1-0.9,0.3c-0.3,0.2-0.5,0.6-0.5,0.9l-0.4,3.4c-1.1-0.2-2.3-0.3-3.4-0.5c-0.1,0-0.1,0-0.2,0c-0.3,0-0.6,0.1-0.9,0.3
		C9.9,5.4,9.7,5.7,9.7,6.1L9.4,7.9L8.5,7.8c-0.1,0-0.1,0-0.2,0C8,7.8,7.7,7.9,7.4,8.1C7.1,8.3,6.9,8.6,6.9,9L0.6,57.8
		c-0.1,0.8,0.5,1.5,1.2,1.6c27.2,3.5,39.1,6.5,39.9,6.7c0.1,0,0.3,0.1,0.4,0.1h0l0,0c0,0,0,0,0.1,0c2.2,0,14.6,0.3,40.3,3.6
		c0.1,0,0.1,0,0.2,0c0.3,0,0.6-0.1,0.9-0.3c0.3-0.2,0.5-0.6,0.5-0.9l6.3-48.8C90.5,18.9,89.9,18.2,89.1,18.1z M82.4,18.5l0.1-0.6
		l0.3-2c1.2,0.1,2.4,0.3,3.6,0.4l-0.3,2L86,18.9l-0.1,0.6l-5.7,44.3c-9.4-1.2-16.8-1.6-22.4-1.6c-5.8,0-9.8,0.4-12.4,0.8
		c1.2-0.6,2.8-1.3,4.8-2c4.9-1.6,13.5-3.1,26.2-1.4c0.2,0,0.3,0,0.5-0.1c0.1-0.1,0.2-0.2,0.2-0.4l5.1-40.1L82.4,18.5z M2.7,57.2
		L8.8,9.7C9.2,9.7,9.6,9.8,10,9.8L4.2,54.7c0,0.2,0,0.3,0.1,0.5s0.2,0.2,0.4,0.2c17,2.2,27,5.2,32.2,7.3C31,61.5,20,59.5,2.7,57.2z
		 M5.5,54.3L11.2,10l0.1-0.6l0.1-0.6l0.3-2c1.3,0.2,2.5,0.3,3.6,0.5l-0.3,2l-0.1,0.6l-0.1,0.6L9.7,50.5c0,0.2,0,0.3,0.1,0.5
		s0.2,0.2,0.4,0.2c12.7,1.6,20.6,5.2,25,8c1.8,1.1,3.2,2.2,4.2,3.1C34.7,60.3,24.6,56.8,5.5,54.3z M41.8,63L41.8,63
		C41.8,63,41.8,63,41.8,63C41.8,63,41.8,63,41.8,63C39.2,60.1,30.8,52.8,11,50.1L16,10.6l0.1-0.6l0.1-0.6l0.3-2l0.2-1.2l0.5-3.7
		c12.3,1.7,20,5.2,24.3,7.9c1.8,1.1,3.2,2.2,4.2,3.1c0.5,0.4,0.9,0.8,1.2,1.1c0.3,0.3,0.5,0.6,0.7,0.8c0.1,0.2,0.2,0.3,0.3,0.4
		c0,0,0,0,0,0L41.8,63z M43,62.5l1.2-9.7l-0.5,3.5l2.3-18L49,16.2c0,0,0,0,0,0l0,0l0-0.2c0.1-0.1,0.2-0.2,0.4-0.3
		c0.2-0.1,0.4-0.3,0.7-0.4c0.1,0,0.1-0.1,0.2-0.1c0.4-0.2,0.9-0.5,1.4-0.8c1.2-0.6,2.8-1.3,4.8-2c4.8-1.5,13.2-3,25.6-1.5l-0.5,3.7
		l-0.1,0.6l-0.1,0.6l-0.3,2l-0.1,0.6L81.1,19L76,58.4C56.1,56,46.2,61,43,63.1L43,62.5z M82.7,68.1c-21.3-2.7-33.4-3.4-38.1-3.6
		c0.8-0.2,1.8-0.3,3.1-0.5c5.6-0.7,16-1.1,33,1.1c0,0,0.1,0,0.1,0c0.1,0,0.3,0,0.4-0.1c0.1-0.1,0.2-0.2,0.2-0.4l5.8-44.9l0.1-0.6
		c0.6,0.1,1.2,0.1,1.8,0.2L82.7,68.1z"/>
	<g>
		<g>
			<path class="st0" d="M44.4,23.7c-0.1,0-0.2,0-0.3-0.1c-2.9-2-5.9-3.7-9.1-5.2c-5.1-2.4-10.4-4-16-5c-0.3-0.1-0.6-0.4-0.5-0.7
				c0.1-0.3,0.4-0.6,0.7-0.5c5.7,1,11.1,2.7,16.3,5.1c3.2,1.5,6.3,3.3,9.3,5.3c0.3,0.2,0.3,0.6,0.2,0.9
				C44.8,23.6,44.6,23.7,44.4,23.7z"/>
			<path class="st0" d="M42.8,28c-0.1,0-0.2,0-0.3-0.1c-2.9-2-5.9-3.7-9.1-5.2c-5.1-2.4-10.4-4-16-5c-0.3-0.1-0.6-0.4-0.5-0.7
				c0.1-0.3,0.4-0.6,0.7-0.5c5.7,1,11.1,2.7,16.3,5.1c3.2,1.5,6.3,3.3,9.3,5.3c0.3,0.2,0.3,0.6,0.2,0.9C43.2,27.9,43,28,42.8,28z"/>
			<path class="st0" d="M44.4,19c-0.1,0-0.2,0-0.3-0.1c-2.9-2-5.9-3.7-9.1-5.2c-5.1-2.4-10.4-4-16-5c-0.3-0.1-0.6-0.4-0.5-0.7
				c0.1-0.3,0.4-0.6,0.7-0.5c5.7,1,11.1,2.7,16.3,5.1c3.2,1.5,6.3,3.3,9.3,5.3c0.3,0.2,0.3,0.6,0.2,0.9C44.8,18.9,44.6,19,44.4,19z"
				/>
			<path class="st0" d="M30.2,26.8c-0.1,0-0.2,0-0.3-0.1c-1.5-0.8-3.2-1.5-4.8-2.1c-1.9-0.6-3.8-1-5.8-1.2c-0.3,0-0.6-0.3-0.5-0.7
				c0-0.3,0.3-0.6,0.7-0.5c2.1,0.2,4.1,0.6,6.1,1.3c1.7,0.6,3.4,1.3,5,2.2c0.3,0.2,0.4,0.5,0.2,0.8C30.6,26.7,30.4,26.8,30.2,26.8z"
				/>
		</g>
		<g>
			<path class="st0" d="M40.6,44.9c-0.1,0-0.2,0-0.3-0.1c-3.1-1.9-6.4-3.5-9.8-4.7c-4.5-1.6-9.2-2.6-14-3c-0.3,0-0.6-0.3-0.6-0.7
				c0-0.3,0.3-0.6,0.7-0.6c4.9,0.4,9.7,1.4,14.3,3.1c3.5,1.3,6.9,2.9,10,4.8c0.3,0.2,0.4,0.6,0.2,0.8C41,44.8,40.8,44.9,40.6,44.9z"
				/>
			<path class="st0" d="M38.7,52c-0.1,0-0.2,0-0.3-0.1c-2.8-1.8-5.8-3.3-9-4.4c-4.4-1.6-9-2.4-13.7-2.5c-0.3,0-0.6-0.3-0.6-0.6
				c0-0.3,0.3-0.6,0.6-0.6c0,0,0,0,0,0c4.8,0.1,9.6,1,14.1,2.6c3.2,1.1,6.3,2.6,9.2,4.5c0.3,0.2,0.4,0.6,0.2,0.8
				C39.1,51.9,38.9,52,38.7,52z"/>
			<path class="st0" d="M38.7,48.2c-0.1,0-0.2,0-0.3-0.1c-2.8-1.8-5.8-3.3-9-4.4c-4.4-1.6-9-2.4-13.7-2.5c-0.3,0-0.6-0.3-0.6-0.6
				c0-0.3,0.3-0.6,0.6-0.6c0,0,0,0,0,0c4.8,0.1,9.6,1,14.1,2.6c3.2,1.1,6.3,2.6,9.2,4.5c0.3,0.2,0.4,0.6,0.2,0.8
				C39.1,48.1,38.9,48.2,38.7,48.2z"/>
		</g>
	</g>
	<g>
		<path class="st0" d="M50.8,22.6c-0.2,0-0.5-0.1-0.6-0.4c-0.1-0.3,0-0.7,0.3-0.8c4.2-1.7,8.6-2.8,13.1-3.3
			c4.6-0.5,9.3-0.5,13.8,0.2c0.3,0,0.6,0.4,0.5,0.7c0,0.3-0.4,0.6-0.7,0.5c-4.5-0.7-9-0.7-13.5-0.2c-4.4,0.5-8.7,1.6-12.8,3.2
			C51,22.5,50.9,22.6,50.8,22.6z"/>
		<path class="st0" d="M48.1,34.4c-0.3,0-0.5-0.2-0.6-0.4c-0.1-0.3,0.1-0.7,0.4-0.8c4.2-1.3,8.6-2.1,13-2.5
			c4.7-0.4,9.5-0.3,14.3,0.3c0.3,0,0.6,0.4,0.5,0.7c0,0.3-0.4,0.6-0.7,0.5c-4.6-0.6-9.3-0.7-14-0.3c-4.3,0.4-8.6,1.2-12.8,2.4
			C48.2,34.4,48.1,34.4,48.1,34.4z"/>
		<path class="st0" d="M48.1,40.9c-0.3,0-0.5-0.2-0.6-0.4c-0.1-0.3,0.1-0.7,0.4-0.8c4.2-1.3,8.6-2.1,13-2.5
			c4.7-0.4,9.5-0.3,14.3,0.3c0.3,0,0.6,0.4,0.5,0.7c0,0.3-0.4,0.6-0.7,0.5c-4.6-0.6-9.3-0.7-14-0.3c-4.3,0.4-8.6,1.2-12.8,2.4
			C48.2,40.9,48.1,40.9,48.1,40.9z"/>
		<path class="st0" d="M48.6,48.5c-0.3,0-0.5-0.2-0.6-0.4c-0.1-0.3,0.1-0.7,0.4-0.8c1.6-0.5,3.2-0.9,4.9-1.2c2.7-0.6,5.5-0.9,8.3-1
			c0.3,0,0.6,0.2,0.6,0.6c0,0.3-0.2,0.6-0.6,0.6c-2.7,0.1-5.4,0.5-8.1,1c-1.6,0.3-3.2,0.7-4.8,1.2C48.7,48.5,48.6,48.5,48.6,48.5z"
			/>
		<path class="st0" d="M50.5,27.9c-0.3,0-0.5-0.2-0.6-0.5c-0.1-0.3,0.1-0.7,0.5-0.7c4.1-0.9,8.3-1.6,12.5-1.9c4.5-0.4,9-0.4,13.5,0
			c0.3,0,0.6,0.3,0.6,0.7c0,0.3-0.3,0.6-0.7,0.6c-4.4-0.3-8.9-0.3-13.3,0c-4.1,0.3-8.3,1-12.3,1.9C50.6,27.9,50.5,27.9,50.5,27.9z"
			/>
	</g>
</g>
</svg>
