<?xml version="1.0" encoding="utf-8"?>
<!-- Generator: Adobe Illustrator 25.2.2, SVG Export Plug-In . SVG Version: 6.00 Build 0)  -->
<svg version="1.1" id="Layer_1" xmlns="http://www.w3.org/2000/svg" xmlns:xlink="http://www.w3.org/1999/xlink" x="0px" y="0px"
	 viewBox="0 0 79 60" style="enable-background:new 0 0 79 60;" xml:space="preserve">
<style type="text/css">
	.st0{fill:#005CAB;}
</style>
<g>
	<path class="st0" d="M36.1,23.4l0.3-0.3c0.3-0.3,0.4-0.7,0.3-1c-0.1-0.4-0.4-0.6-0.8-0.7L12,16.6l28.5-4.4c0.4-0.1,0.7-0.3,0.8-0.7
		c0.1-0.4,0-0.8-0.3-1.1l-10.2-10c-0.2-0.2-0.6-0.3-0.9-0.3L1,4.6C0.7,4.7,0.3,5,0.2,5.3c-0.1,0.4,0,0.8,0.3,1.1l10.2,10
		c0.1,0.1,0.2,0.1,0.3,0.2c-0.1,0.1-0.3,0.1-0.4,0.2l-10,10c-0.3,0.3-0.4,0.7-0.3,1c0.1,0.4,0.4,0.6,0.8,0.7l9.3,1.8
		c-0.1,0.2-0.1,0.3-0.1,0.5v20.3c0,0.5,0.3,0.9,0.7,1l24.3,7.4c0.1,0,0.2,0,0.3,0c0.2,0,0.4-0.1,0.6-0.2c0.3-0.2,0.4-0.5,0.4-0.8
		V24.3C36.6,23.9,36.4,23.6,36.1,23.4z M3.4,6.4l26.4-4.1l8.4,8.2l-26.4,4.1L3.4,6.4z M11.7,18.7l21.8,4.4l-8.1,8.1L3.5,26.9
		L11.7,18.7z M34.6,57.2l-22.2-6.8V32.1L26,34.8c0.4,0.1,0.7-0.1,1-0.3l7.6-7.6V57.2z"/>
	<path class="st0" d="M68.2,16.7L68.2,16.7C68.2,16.7,68.2,16.7,68.2,16.7l10-9.9c0.3-0.3,0.4-0.7,0.3-1C78.3,5.4,78,5.1,77.6,5
		L53.3,0.2c-0.3-0.1-0.7,0-0.9,0.3l-10,10c-0.3,0.3-0.4,0.7-0.3,1c0.1,0.4,0.4,0.6,0.8,0.7l23.8,4.6c0,0,0,0,0,0l-28.9,4.5
		c-0.4,0.1-0.7,0.3-0.8,0.7c-0.1,0.4,0,0.8,0.3,1.1l0.2,0.2c-0.3,0.2-0.6,0.5-0.6,0.9v34.3c0,0.3,0.1,0.6,0.4,0.8
		c0.2,0.1,0.4,0.2,0.6,0.2c0.1,0,0.2,0,0.2,0l29.1-6.7c0.5-0.1,0.8-0.5,0.8-1V30.8c0-0.2,0-0.3-0.1-0.5l9.3-1.4
		c0.4-0.1,0.7-0.3,0.8-0.7c0.1-0.4,0-0.8-0.3-1.1l-10.2-10c-0.1-0.1-0.1-0.1-0.2-0.2c0.1,0,0.1,0,0.2,0C67.7,17,68,16.9,68.2,16.7z
		 M53.5,2.3l21.8,4.4l-8.1,8.1l-21.9-4.3L53.5,2.3z M65.9,51l-27,6.2V26.7l8,7.8c0.2,0.2,0.6,0.3,0.9,0.3L65.9,32V51z M74.8,27.2
		l-26.4,4.1l-8.4-8.2L66.5,19L74.8,27.2z"/>
</g>
</svg>
