<?xml version="1.0" encoding="utf-8"?>
<!-- Generator: Adobe Illustrator 25.2.2, SVG Export Plug-In . SVG Version: 6.00 Build 0)  -->
<svg version="1.1" id="Layer_1" xmlns="http://www.w3.org/2000/svg" xmlns:xlink="http://www.w3.org/1999/xlink" x="0px" y="0px"
	 viewBox="0 0 75 46" style="enable-background:new 0 0 75 46;" xml:space="preserve">
<style type="text/css">
	.st0{fill-rule:evenodd;clip-rule:evenodd;fill:none;stroke:#1E4280;stroke-miterlimit:10;}
</style>
<g>
	<path class="st0" d="M42.69,10.92c1.16-0.94,2.71-1.4,4.62-1.41l6.55,0.01l2.82-1.62l11.15,5.81l0.82,4.72l-1.74,1
		c-1.97-0.98-4.19-1.53-6.54-1.53c-7.62,0-13.88,5.8-14.62,13.22c0,0.96-0.47,1.53-1.66,1.47H30.94c-1.03-0.05-1.58-0.57-1.64-1.59
		c-0.79-7.38-7.04-13.12-14.62-13.12c-0.04,0-0.07,0-0.11,0H4.43l-2.29-1.29l1.12-4.84l2.24,0.01l0.53-2.19h12.17l2.59,2.78
		c6.67,1.25,13.07,2.26,17.3,1.35C40.85,13.11,40.78,12.47,42.69,10.92L42.69,10.92z M53.75,8.45l-1.47-4.13
		c-0.09-0.2-0.33-0.36-0.99-0.42l-4.92-0.55c-0.9-0.1-1.04-2.59,0.27-2.44l4.92,0.55c1.69,0.18,2.4,0.23,3.04,2.04l1.31,3.7
		L53.75,8.45L53.75,8.45z M14.67,20.1c6.9,0,12.5,5.59,12.5,12.5c0,6.9-5.59,12.5-12.5,12.5c-6.9,0-12.5-5.59-12.5-12.5
		C2.18,25.69,7.77,20.1,14.67,20.1L14.67,20.1z M14.67,27.21c2.97,0,5.38,2.41,5.38,5.38c0,2.97-2.41,5.38-5.38,5.38
		c-2.97,0-5.38-2.41-5.38-5.38C9.29,29.62,11.7,27.21,14.67,27.21L14.67,27.21z M60.36,20.1c6.9,0,12.5,5.59,12.5,12.5
		c0,6.9-5.59,12.5-12.5,12.5c-6.9,0-12.5-5.59-12.5-12.5C47.87,25.69,53.46,20.1,60.36,20.1L60.36,20.1z M60.36,27.21
		c2.97,0,5.38,2.41,5.38,5.38c0,2.97-2.41,5.38-5.38,5.38c-2.97,0-5.38-2.41-5.38-5.38C54.98,29.62,57.39,27.21,60.36,27.21
		L60.36,27.21z"/>
</g>
</svg>
