<?xml version="1.0" encoding="utf-8"?>
<!-- Generator: Adobe Illustrator 25.2.2, SVG Export Plug-In . SVG Version: 6.00 Build 0)  -->
<svg version="1.1" id="Layer_1" xmlns="http://www.w3.org/2000/svg" xmlns:xlink="http://www.w3.org/1999/xlink" x="0px" y="0px"
	 viewBox="0 0 75 47" style="enable-background:new 0 0 75 47;" xml:space="preserve">
<style type="text/css">
	.st0{fill:#005CAB;}
</style>
<path class="st0" d="M13.7,46.8c-7.4,0-13.5-6.1-13.5-13.5c0-7.4,6.1-13.5,13.5-13.5s13.5,6.1,13.5,13.5
	C27.2,40.7,21.2,46.8,13.7,46.8z M13.7,21.8C7.4,21.8,2.2,27,2.2,33.3c0,6.3,5.2,11.5,11.5,11.5s11.5-5.2,11.5-11.5
	C25.2,27,20.1,21.8,13.7,21.8z M61.3,46.8c-7.4,0-13.5-6.1-13.5-13.5c0-7.4,6.1-13.5,13.5-13.5s13.5,6.1,13.5,13.5
	C74.8,40.7,68.7,46.8,61.3,46.8z M61.3,21.8c-6.3,0-11.5,5.2-11.5,11.5c0,6.3,5.2,11.5,11.5,11.5s11.5-5.2,11.5-11.5
	C72.8,26.9,67.6,21.8,61.3,21.8z M13.7,39.7c-3.5,0-6.4-2.9-6.4-6.4s2.9-6.4,6.4-6.4s6.4,2.9,6.4,6.4S17.2,39.7,13.7,39.7z
	 M13.7,28.9c-2.4,0-4.4,2-4.4,4.4s2,4.4,4.4,4.4s4.4-2,4.4-4.4S16.1,28.9,13.7,28.9z M61.3,39.6c-3.5,0-6.4-2.9-6.4-6.4
	s2.9-6.4,6.4-6.4s6.4,2.9,6.4,6.4S64.8,39.6,61.3,39.6z M61.3,28.9c-2.4,0-4.4,2-4.4,4.4s2,4.4,4.4,4.4s4.4-2,4.4-4.4
	S63.7,28.9,61.3,28.9z M44.5,33.9c-0.1,0-0.2,0-0.2,0l-13.1,0c-1.6-0.1-2.5-1-2.6-2.5c-0.7-6.9-6.6-12.2-13.6-12.2l-0.2,0l-10.3,0
	l-3.2-1.8L2.7,11l2.3,0l0.5-2.2h13.4l2.7,2.9c5.9,1.1,12.5,2.2,16.6,1.3c1.8-0.4,2.1-0.7,2.9-1.5c0.3-0.3,0.7-0.7,1.2-1.1l0,0
	c1.3-1.1,3.1-1.6,5.2-1.6l5.4,0l-1.3-3.6c-0.1,0-0.1,0-0.2,0l-4.9-0.5c-0.6-0.1-1.1-0.5-1.4-1.1c-0.3-0.7-0.4-1.9,0.2-2.6
	c0.4-0.5,1-0.8,1.6-0.7l4.9,0.5c1.8,0.2,3,0.3,3.9,2.7L57,7.2l11.9,6.2l1,5.9l-2.8,1.6l-0.5-0.2c-1.9-0.9-4-1.4-6.1-1.4
	c-7.1,0-12.9,5.3-13.6,12.3c0,0.7-0.2,1.3-0.7,1.8C45.8,33.7,45.2,33.9,44.5,33.9z M44.3,31.9c0.4,0,0.6,0,0.6-0.1
	c0,0,0.1-0.1,0.1-0.4c0.8-8.1,7.5-14.2,15.6-14.2c2.3,0,4.5,0.5,6.5,1.4l0.7-0.4l-0.6-3.5L56.9,9.3l-2.6,1.5l-6.8,0
	c-1.7,0-3,0.4-4,1.2c-0.5,0.4-0.8,0.7-1.1,1c-1,1-1.7,1.5-3.9,2c-4.5,1-11.2-0.1-17.7-1.3l-0.3-0.1L18,10.9H7l-0.5,2.2l-2.2,0
	l-0.8,3.3l1.4,0.8l10,0c8,0,14.8,6,15.6,14c0,0.5,0.1,0.7,0.7,0.7L44.3,31.9z M46.9,2.7l4.7,0.5c0.4,0,1.4,0.1,1.8,1l1.1,3.1L54.9,7
	l-1-2.9c-0.4-1.2-0.5-1.2-2.1-1.4l-4.9-0.5C46.9,2.4,46.9,2.6,46.9,2.7z"/>
</svg>
